<?xml version="1.0" standalone="no"?>
<!DOCTYPE svg PUBLIC "-//W3C//DTD SVG 20010904//EN"
 "http://www.w3.org/TR/2001/REC-SVG-20010904/DTD/svg10.dtd">
<svg version="1.0" xmlns="http://www.w3.org/2000/svg"
 width="300.000000pt" height="300.000000pt" viewBox="0 0 300.000000 300.000000"
 preserveAspectRatio="xMidYMid meet">
<metadata>
Created by potrace 1.14, written by Peter Selinger 2001-2017
</metadata>
<g transform="translate(0.000000,300.000000) scale(0.100000,-0.100000)"
fill="#000000" stroke="none">
<path d="M97 2152 c-9 -2 -17 -11 -18 -20 -5 -95 -1 -1304 5 -1309 8 -9 532
-8 616 1 248 27 464 207 534 446 35 119 39 244 12 389 -12 62 -67 181 -113
241 -102 137 -268 227 -453 246 -58 7 -555 11 -583 6z m598 -213 c202 -46 316
-221 310 -476 -6 -228 -106 -375 -291 -429 -42 -12 -101 -18 -209 -19 -82 -1
-156 0 -162 3 -10 3 -13 106 -13 468 l0 463 73 3 c112 5 237 -1 292 -13z"/>
<path d="M1523 2152 l-43 -3 0 -665 c0 -365 3 -664 8 -665 10 -1 184 -1 200 0
10 1 12 99 12 472 -1 259 1 473 2 475 2 2 15 -18 28 -44 27 -51 164 -307 250
-467 30 -55 71 -131 91 -170 46 -87 74 -109 131 -107 60 3 91 18 111 55 9 18
59 111 110 207 52 96 118 220 147 275 76 145 132 250 136 253 1 2 2 -209 2
-468 0 -259 3 -474 6 -477 5 -5 123 -7 193 -4 l22 1 0 665 0 665 -32 1 c-96 4
-198 -1 -214 -10 -19 -9 -27 -23 -115 -191 -28 -52 -71 -133 -96 -180 -118
-219 -147 -273 -204 -387 l-61 -123 -54 108 c-30 59 -63 121 -72 137 -10 17
-40 71 -66 120 -46 87 -87 164 -145 270 -15 28 -51 94 -79 148 -37 67 -59 99
-74 102 -28 7 -140 11 -194 7z"/>
</g>
</svg>
