<svg width="66" height="53" viewBox="0 0 66 53" fill="none" xmlns="http://www.w3.org/2000/svg">
<path d="M43.722 1.55932C42.5834 2.14775 40.5339 3.09829 39.1676 3.59618C35.0687 5.18041 34.2489 6.58358 35.7063 9.38993C36.9815 11.7889 41.126 14.9121 43.0388 14.9121C43.5854 14.9121 43.4032 14.5952 42.4923 13.7805L41.2171 12.6036L43.1755 13.5542C45.316 14.5952 45.3616 14.55 44.4052 12.6489C43.7675 11.4268 44.1774 10.6573 44.8606 11.7436C45.316 12.5131 45.9081 11.8342 45.7259 10.7026C45.6348 10.1594 45.7715 10.3857 46.0903 11.1552C46.6823 12.9205 47.0467 13.011 47.7298 11.6078C48.2308 10.7026 48.2308 10.7026 48.0486 11.97C47.8209 13.2373 47.8209 13.2826 48.3219 12.2868C48.6407 11.7436 49.0506 11.291 49.2783 11.291C49.4605 11.291 49.6427 11.7436 49.6882 12.2868C49.6882 13.011 50.007 12.6036 50.7813 10.9289C52.2387 7.76044 52.5575 7.94149 51.3278 11.2457C50.7813 12.7394 50.4625 14.0973 50.6446 14.2331C50.7813 14.4142 51.4644 14.1879 52.102 13.7805C53.1951 13.0563 53.2862 13.0563 53.0129 13.7352C52.603 14.8216 53.3773 14.6405 55.4723 13.1015C56.5198 12.3321 57.5217 11.7436 57.6584 11.7436C58.2504 11.7436 56.7019 13.1921 54.7891 14.5047C52.5119 16.0889 52.3298 16.7226 54.106 16.7679C55.1535 16.7679 55.199 16.8584 54.4703 17.13C53.605 17.4468 53.605 17.4921 54.4703 17.809C55.2901 18.1258 55.2445 18.1711 54.197 18.7595C53.104 19.3932 53.1495 19.3932 55.4723 19.4384C58.296 19.4384 58.6603 20.2532 55.9277 20.4342L53.9693 20.57L56.0188 21.7469C57.1574 22.4258 58.4781 23.4216 58.9791 24.0101C59.5712 24.689 59.0702 24.4627 57.4306 23.3764C54.7891 21.5206 53.104 21.1585 53.605 22.4711C53.8782 23.1953 53.7871 23.1953 52.9218 22.4258C51.9199 21.5658 51.9199 21.5658 51.9199 22.6974C51.9199 23.3311 52.2387 24.5985 52.603 25.4585C53.6505 28.0385 53.3317 28.0838 52.1476 25.549C51.4644 24.1006 51.0545 23.6027 51.0545 24.2364C50.9634 26.9975 56.1099 33.4702 58.4326 33.4702C59.9355 33.4702 61.3474 31.9765 61.9395 29.7585C62.2583 28.7627 63.0781 26.8617 63.8068 25.549C65.9018 21.8374 65.4919 20.0721 62.3038 18.7595L60.3454 17.99L62.1672 17.0847C66.4027 14.9573 66.7215 13.2373 63.4424 10.5668C62.2127 9.61624 60.2543 7.76044 58.9791 6.49306C57.7494 5.22568 56.1099 4.04882 55.3812 3.86777C53.7416 3.46039 51.7377 4.22987 51.1456 5.54252C50.7813 6.35727 50.6446 6.22147 50.4169 4.36567C49.9615 1.10669 49.4605 0.427734 47.4566 0.427734C46.5457 0.472999 44.8606 0.970898 43.722 1.55932ZM45.5437 8.8015C45.5437 9.02782 45.316 8.93729 45.0883 8.57518C44.8606 8.21307 44.6329 7.66991 44.6329 7.44359C44.6329 7.17201 44.8606 7.3078 45.0883 7.66991C45.316 8.03202 45.5437 8.52992 45.5437 8.8015Z" fill="#CCFFEC"/>
<path d="M16.8512 2.23814C16.3502 2.73604 15.8036 3.95816 15.667 4.95396C15.4848 5.94975 15.2116 6.7645 14.9839 6.7645C14.7561 6.7645 14.574 6.58344 14.574 6.40239C14.574 6.22134 13.8453 5.31606 12.9344 4.36553C10.3384 1.74024 8.92656 2.14761 6.87709 6.17607C6.37611 7.21713 5.10089 9.254 4.09893 10.7024C2.55044 12.8751 2.27718 13.5993 2.36827 15.093C2.45936 16.5867 2.77816 17.1299 4.00784 17.9446L5.51078 18.9404L3.91675 19.2573C1.7762 19.6194 0 21.0678 0 22.3352C0 23.4215 1.59403 26.0468 3.41577 28.0384C3.9623 28.6721 4.78208 29.8489 5.19198 30.6637C6.28502 32.7911 7.56025 33.9227 8.88101 33.9227C11.3859 33.9227 15.5304 28.4458 15.4393 25.232C15.4393 23.9194 15.3482 23.8289 14.8928 24.5531C13.5265 26.6352 13.2532 26.8163 13.9364 25.1415C14.7106 23.1952 14.4829 22.6068 13.2077 23.4215C11.978 24.1457 11.6136 24.1005 12.2968 23.2857C12.7522 22.7425 12.7067 22.6068 12.0235 22.6068C11.2037 22.5615 11.2037 22.5615 11.978 22.1089C13.1166 21.4299 12.9344 20.8867 11.5225 20.6604C10.384 20.4794 10.4295 20.4794 11.8413 20.3888L13.4354 20.253L12.0691 19.6646C10.7938 19.1215 10.7938 19.0309 11.6136 18.7141C12.3879 18.3972 12.2512 18.2615 10.7028 17.7636L8.88101 17.2204H10.9305C13.9364 17.2657 13.9364 17.2657 12.7067 15.953C11.8869 15.0477 11.7958 14.8214 12.4334 15.0477C13.7086 15.5004 13.3443 14.6856 11.3404 12.694C8.83547 10.2045 9.65525 10.3403 12.5245 12.8751L14.8017 14.8667L15.0749 13.4182C15.3482 12.1509 15.3938 12.1056 15.4393 13.1014L15.5304 14.233L16.0314 13.2372C16.4868 12.2867 16.5779 12.2414 17.17 13.0109C17.6709 13.6898 17.7165 13.4635 17.5343 11.2909C17.3066 8.84663 17.3066 8.84663 17.9897 10.1593C18.3541 10.8835 18.6274 11.7888 18.6729 12.1056C18.6729 13.1919 19.4927 12.2414 19.7659 10.7477C19.9481 9.93295 20.4946 8.7561 20.9956 8.12241C21.9065 6.99082 21.9065 6.99082 20.9956 8.89189C20.0392 10.793 19.7204 13.1014 20.4036 13.1014C20.5857 13.1014 21.0412 12.8298 21.4055 12.513C21.7699 12.1961 21.7243 12.4677 21.2689 13.1919C20.4946 14.414 20.4946 14.4593 21.2689 14.4593C21.7243 14.4593 22.8629 13.9614 23.8193 13.3277C24.7302 12.694 25.5044 12.3319 25.5044 12.5582C25.5044 12.7393 24.6847 13.4182 23.6372 13.9614C21.6332 15.093 21.4966 15.6362 23.4094 14.9119C25.1401 14.2783 29.1024 10.4761 30.1044 8.48452C31.6984 5.36133 29.9222 3.14341 25.7777 3.14341C24.9579 3.14341 23.3639 2.73604 22.2708 2.23814C19.7204 1.10655 17.9897 1.10655 16.8512 2.23814Z" fill="#CCFFEC"/>
<path d="M44.4962 15.2294C42.9021 17.0399 43.312 17.7189 46.4546 18.8052C49.2327 19.801 49.4604 19.801 50.007 19.0768C51.3733 17.3115 49.3238 14.4599 46.6823 14.4599C45.8625 14.4599 44.9061 14.822 44.4962 15.2294Z" fill="#CCFFEC"/>
<path d="M18.4908 16.1335C18.9918 16.224 20.0848 16.9029 20.9046 17.6272C22.5897 19.1661 22.7719 19.2566 22.7719 18.3061C22.7719 17.084 20.8591 15.8166 19.174 15.8619C18.2631 15.9071 17.9443 16.0429 18.4908 16.1335Z" fill="#CCFFEC"/>
<path d="M50.8723 17.4017C51.0545 18.7596 50.9179 19.3933 50.4169 19.8459C50.007 20.1628 49.8248 20.7059 49.9615 21.068C50.1892 21.6565 50.3258 21.6112 51.0545 20.9775C52.102 20.0722 52.1931 17.7185 51.2822 16.4512C50.6902 15.6817 50.6446 15.7722 50.8723 17.4017Z" fill="#CCFFEC"/>
<path d="M17.0334 16.5869C17.2156 16.949 17.079 17.1753 16.6691 17.1753C14.8018 17.1753 13.8454 21.3849 15.3938 22.7428C16.578 23.7838 17.079 23.6933 17.9898 22.2449C18.4453 21.5659 19.3106 20.4796 19.9027 19.8459C20.9046 18.7596 20.9502 18.5785 20.267 17.8996C19.8571 17.4922 19.174 17.1753 18.7185 17.1753C18.3086 17.1753 17.671 16.9038 17.3522 16.5869C16.8512 16.1343 16.7601 16.1343 17.0334 16.5869Z" fill="#CCFFEC"/>
<path d="M24.1837 18.4429C18.1264 24.8251 17.3066 25.7756 17.3066 26.8167C17.3066 28.5367 18.9462 30.1662 21.6788 31.162C25.5045 32.6105 30.5143 32.2936 27.0074 30.8904C25.7778 30.3925 25.8233 30.3473 27.4629 30.6189C29.4213 30.8904 29.5579 30.5736 28.146 29.0346L27.0985 27.9483L28.146 28.2199C28.8292 28.4462 29.148 28.3557 29.148 27.9936C29.148 27.5409 29.2846 27.5409 29.6945 27.9483C30.5599 28.8083 30.9697 28.582 31.0153 27.2241C31.1064 26.1378 31.1064 26.183 31.4252 27.5862L31.744 29.1704L31.8351 27.6767C31.8806 26.0925 32.4727 25.7756 33.0648 26.9978C33.338 27.5862 33.5202 26.9978 33.7024 25.0967L34.0212 22.3809L34.0667 24.8704C34.2033 28.0841 34.7954 29.1252 35.5697 27.4504C36.1617 26.183 37.0726 25.6851 36.6172 26.9072C36.0251 28.3557 37.2092 27.4957 38.4845 25.5041C40.5339 22.2904 40.8983 22.5619 39.031 25.9567C38.1201 27.5862 37.3459 29.0799 37.3459 29.2157C37.3459 29.3062 37.8924 29.2609 38.53 29.1252C39.3498 28.8988 39.6686 28.9894 39.4409 29.3062C39.3042 29.5778 39.4409 29.8494 39.7141 29.9852C40.1696 30.121 40.124 30.3473 39.623 30.981C38.9854 31.7504 39.031 31.7957 39.8508 31.4789C43.2665 30.121 44.314 30.3473 41.7636 31.8862L40.3062 32.7462L42.8111 33.0178C44.1774 33.1536 45.7259 33.5157 46.2269 33.8326L47.1377 34.4663L46.2269 34.1494C45.7259 33.9684 44.223 33.742 42.8566 33.6063C40.4884 33.3347 40.3973 33.3799 40.6705 34.3305C40.8527 35.1452 40.7616 35.281 40.0329 35.0547C38.7122 34.6021 38.9854 35.5073 40.8527 37.6347L42.5378 39.581L40.625 37.7705C38.5755 35.8694 38.029 36.1863 39.8052 38.3137C41.2171 39.9884 45.316 42.3421 47.411 42.7042C48.6407 42.9306 49.3238 42.7948 50.1892 42.1158C51.2822 41.2105 51.3278 41.0747 51.3278 35.3263C51.3733 28.4009 51.0545 27.8125 47.3655 27.8125H45.2249L46.7279 25.8209C48.3219 23.7841 48.7318 21.7472 47.7298 20.8872C47.411 20.6609 45.9081 20.0724 44.4051 19.6651C42.9022 19.2577 40.8072 18.4882 39.7141 17.9903C37.2548 16.8587 34.5677 16.4966 33.338 17.1303C32.837 17.4019 32.1539 18.3524 31.8351 19.303L31.2886 20.9324L30.6054 19.6198C29.6034 17.6735 28.1916 16.2703 27.1896 16.2703C26.6886 16.2703 25.3223 17.2661 24.1837 18.4429Z" fill="#CCFFEC"/>
<path d="M30.3322 31.2528C29.0569 32.2486 28.7381 34.1496 29.6035 35.7339C30.2866 37.0013 32.3816 37.5444 34.0668 36.8202C35.3875 36.277 35.6152 35.9602 36.1162 33.2444C36.2528 32.4749 36.3439 32.5654 36.6627 33.6065C36.936 34.6023 36.7994 35.1907 35.9796 36.277C35.0687 37.4991 35.0687 37.5897 35.8885 37.137C38.9399 35.5076 36.7994 30.3022 33.1103 30.3022C32.1995 30.3022 31.0153 30.7096 30.3322 31.2528Z" fill="#CCFFEC"/>
<path d="M18.3997 35.6887C14.0275 37.7256 13.8908 39.3098 17.762 42.9761C19.265 44.4246 20.4947 45.873 20.4947 46.2804C20.4947 46.6425 21.1323 47.5025 21.9065 48.1362C23.8193 49.7657 26.4609 49.7657 27.5084 48.1815C28.6014 46.5067 29.148 46.7783 29.148 49.0415C29.148 50.671 29.3757 51.2594 30.2865 51.9383C31.6073 52.9794 33.2469 52.7531 35.4785 51.1236C36.2072 50.6257 38.029 49.992 39.4864 49.7204C43.0843 49.0867 44.1774 48.3172 44.1774 46.4614C44.1774 44.6962 41.9002 41.2561 39.623 39.5814C37.4824 37.9971 36.3894 38.0877 37.8468 39.6719L38.9398 40.8487L37.8012 40.1245C36.2072 39.0382 35.9795 39.174 36.4805 40.6677C36.7537 41.3919 36.8904 42.7498 36.7993 43.7456L36.6171 45.4656L36.2983 43.6551C36.0706 42.6593 35.7973 41.3466 35.6607 40.713L35.433 39.5814L34.431 41.8445L34.2488 40.5772C34.0211 38.9477 33.5657 39.0382 32.3816 40.8035C31.334 42.433 31.1974 42.3424 31.8806 40.4866C32.2905 39.4003 32.2449 39.3098 31.4251 39.5814C30.742 39.8077 30.5143 39.6719 30.5143 39.0382C30.4687 38.495 30.2865 38.6761 29.8311 39.5814L29.239 40.9393L29.5123 39.1287L29.74 37.3182L28.2371 39.0382C26.5975 40.894 25.8233 40.9845 27.0529 39.174C28.5559 36.8203 27.645 36.9561 24.548 39.5361C20.9501 42.4782 21.1778 41.573 24.8213 38.1782C28.4648 34.8287 28.3737 34.3761 23.9104 34.3761C21.8154 34.3761 20.4947 34.6929 18.3997 35.6887Z" fill="#CCFFEC"/>
</svg>
